<svg width="1440" height="1043" viewBox="0 0 1440 1043" fill="none" xmlns="http://www.w3.org/2000/svg">
<rect x="0.5" y="0.5" width="1439" height="1042" fill="#00FF29" fill-opacity="0.65" stroke="black"/>
<path fill-rule="evenodd" clip-rule="evenodd" d="M1440 199.813L1422 171.363C1403 142.913 1366 86.0124 1329 80.7193C1292 76.0879 1255 123.725 1218 133.65C1182 142.913 1145 114.463 1108 104.538C1071 95.2752 1034 104.538 997 123.725C960 142.913 923 171.363 886 181.288C849 190.551 812 181.288 775 195.182C738 209.738 702 247.451 665 252.744C628 257.376 591 228.925 554 190.551C517 152.176 480 104.538 443 99.9067C406 95.2752 369 133.65 332 166.732C295 199.813 258 228.925 222 214.369C185 199.813 148 142.913 111 128.357C74 114.463 37 142.913 18 157.469L0 171.363V-3.05176e-05H18C37 -3.05176e-05 74 -3.05176e-05 111 -3.05176e-05C148 -3.05176e-05 185 -3.05176e-05 222 -3.05176e-05C258 -3.05176e-05 295 -3.05176e-05 332 -3.05176e-05C369 -3.05176e-05 406 -3.05176e-05 443 -3.05176e-05C480 -3.05176e-05 517 -3.05176e-05 554 -3.05176e-05C591 -3.05176e-05 628 -3.05176e-05 665 -3.05176e-05C702 -3.05176e-05 738 -3.05176e-05 775 -3.05176e-05C812 -3.05176e-05 849 -3.05176e-05 886 -3.05176e-05C923 -3.05176e-05 960 -3.05176e-05 997 -3.05176e-05C1034 -3.05176e-05 1071 -3.05176e-05 1108 -3.05176e-05C1145 -3.05176e-05 1182 -3.05176e-05 1218 -3.05176e-05C1255 -3.05176e-05 1292 -3.05176e-05 1329 -3.05176e-05C1366 -3.05176e-05 1403 -3.05176e-05 1422 -3.05176e-05H1440V199.813Z" fill="#4DF76A"/>
<path fill-rule="evenodd" clip-rule="evenodd" d="M0 792L9.66443 806.141C24.1611 823.817 48.3221 855.634 72.4832 845.028C96.6443 834.423 120.805 781.394 144.966 795.535C169.128 813.211 193.289 894.521 217.45 944.014C241.611 989.972 265.772 1000.58 289.933 1007.65C314.094 1011.18 338.255 1011.18 362.416 989.972C381.745 968.761 405.906 926.338 430.067 912.197C454.228 894.521 478.389 905.127 502.55 926.338C526.711 947.549 550.872 979.366 575.034 954.62C599.195 926.338 623.356 845.028 647.517 837.958C671.678 834.423 695.839 905.127 720 912.197C744.161 915.732 768.322 855.634 792.483 823.817C816.644 792 840.805 792 864.966 806.141C889.128 823.817 913.289 855.634 937.45 869.775C961.611 887.451 985.772 887.451 1009.93 912.197C1034.09 936.944 1058.26 989.972 1082.42 1000.58C1101.74 1011.18 1125.91 979.366 1150.07 965.225C1174.23 947.549 1198.39 947.549 1222.55 922.803C1246.71 894.521 1270.87 845.028 1295.03 859.169C1319.19 876.845 1343.36 958.155 1367.52 975.831C1391.68 989.972 1415.84 936.944 1430.34 912.197L1440 887.451V1043H1430.34C1415.84 1043 1391.68 1043 1367.52 1043C1343.36 1043 1319.19 1043 1295.03 1043C1270.87 1043 1246.71 1043 1222.55 1043C1198.39 1043 1174.23 1043 1150.07 1043C1125.91 1043 1101.74 1043 1082.42 1043C1058.26 1043 1034.09 1043 1009.93 1043C985.772 1043 961.611 1043 937.45 1043C913.289 1043 889.128 1043 864.966 1043C840.805 1043 816.644 1043 792.483 1043C768.322 1043 744.161 1043 720 1043C695.839 1043 671.678 1043 647.517 1043C623.356 1043 599.195 1043 575.034 1043C550.872 1043 526.711 1043 502.55 1043C478.389 1043 454.228 1043 430.067 1043C405.906 1043 381.745 1043 362.416 1043C338.255 1043 314.094 1043 289.933 1043C265.772 1043 241.611 1043 217.45 1043C193.289 1043 169.128 1043 144.966 1043C120.805 1043 96.6443 1043 72.4832 1043C48.3221 1043 24.1611 1043 9.66443 1043H0V792Z" fill="white"/>
</svg>
