<svg width="1280" height="272" viewBox="0 0 1280 272" fill="none" xmlns="http://www.w3.org/2000/svg">
<path fill-rule="evenodd" clip-rule="evenodd" d="M0 0L17.7778 34.5896C35.5556 68.3931 71.1111 136 106.667 164.301C142.222 192.601 177.778 181.595 213.333 141.503C248.889 102.197 284.444 34.5896 320 40.0925C355.556 45.5954 391.111 124.994 426.667 176.092C462.222 226.405 497.778 249.202 533.333 249.202C568.889 249.202 604.444 226.405 640 204.393C675.556 181.595 711.111 158.798 746.667 124.994C782.222 91.1907 817.778 45.5954 853.333 34.5896C888.889 22.7977 924.444 45.5954 960 62.8902C995.556 79.3988 1031.11 91.1907 1066.67 73.896C1102.22 56.6012 1137.78 11.7919 1173.33 17.2948C1208.89 22.7977 1244.44 79.3988 1262.22 107.699L1280 136V272H1262.22C1244.44 272 1208.89 272 1173.33 272C1137.78 272 1102.22 272 1066.67 272C1031.11 272 995.556 272 960 272C924.444 272 888.889 272 853.333 272C817.778 272 782.222 272 746.667 272C711.111 272 675.556 272 640 272C604.444 272 568.889 272 533.333 272C497.778 272 462.222 272 426.667 272C391.111 272 355.556 272 320 272C284.444 272 248.889 272 213.333 272C177.778 272 142.222 272 106.667 272C71.1111 272 35.5556 272 17.7778 272H0V0Z" fill="#496873"/>
</svg>
