<svg width="155" height="80" viewBox="0 0 155 80" fill="none" xmlns="http://www.w3.org/2000/svg">
<path d="M27.2924 58.3995C24.7059 58.2265 19.8689 58.8019 15.0245 58.1626C8.42213 57.2939 4.03673 53.4655 1.9392 46.9934C-0.180716 40.4612 1.30845 34.4968 5.99616 29.6869C7.3771 28.2729 8.00038 26.8363 8.26164 24.9109C9.34399 16.927 13.5913 11.3349 20.5818 8.5295C27.5649 5.72781 34.2419 6.96507 40.0119 12.1736C41.3257 13.3619 42.2699 13.7982 44.0166 13.0009C47.1965 11.5493 50.6264 11.1281 54.0191 12.2074C55.8964 12.8054 56.9302 12.1961 58.1805 10.6355C65.6712 1.2564 75.4123 -1.82734 86.4038 1.02324C97.6155 3.93022 104.057 12.2225 106.539 24.0723C107.846 30.3112 106.282 35.185 101.135 38.9193C89.2291 47.5613 76.0804 52.8563 62.0359 55.8723C51.3132 58.1814 40.4523 58.7342 27.2924 58.3995Z" fill="#99F1A7"/>
<path d="M54.681 60.1892C60.201 58.4556 65.7434 57.7185 71.1253 56.1766C81.3368 53.2546 91.0294 49.2081 99.7704 43.0557C102.861 40.8821 106.182 39.4793 110 39.0958C114.11 38.6821 114.326 38.0428 112.303 34.1919C110.904 31.5293 109.493 28.8781 108.097 26.2419C109.605 25.1964 110.545 26.1516 111.467 26.6217C124.959 33.5488 138.433 40.5098 151.899 47.4933C152.746 47.9333 153.978 48.1664 154.004 49.43C154.03 50.6635 152.914 51.0321 152.029 51.4871C138.343 58.527 124.653 65.5632 110.96 72.5881C110.191 72.983 109.291 73.7652 108.534 72.904C107.918 72.2008 108.765 71.4712 109.112 70.8131C110.265 68.6169 111.464 66.447 112.617 64.2507C114.255 61.1294 113.751 60.2118 110.228 60.2043C92.8172 60.178 75.4062 60.1892 57.9953 60.1892C56.8831 60.1892 55.782 60.1892 54.681 60.1892Z" fill="#99F1A7"/>
<path d="M17.6943 74.5437C17.5562 74.9085 17.2875 75.0927 16.8993 75.0927H13.6075C13.2305 75.0927 13.126 74.9085 13.294 74.5437L18.9334 60.4563C19.0715 60.0915 19.3253 59.9072 19.6873 59.9072H30.7348C31.0968 59.9072 31.2088 60.0915 31.0707 60.4563L29.9174 63.3294C29.7793 63.6942 29.5255 63.8785 29.1635 63.8785H22.1394C22.0013 63.8785 21.9005 63.9424 21.8446 64.0703L17.6943 74.5437ZM21.9304 66.3492C22.0834 65.9844 22.3409 65.8002 22.7067 65.8002H27.4019C27.7639 65.8002 27.8684 65.9844 27.7154 66.3492L26.7935 68.6507C26.6554 69.0155 26.4016 69.1998 26.0396 69.1998H21.3444C20.9824 69.1998 20.8704 69.0155 21.0085 68.6507L21.9304 66.3492Z" fill="#99F1A7"/>
<path d="M34.2543 68.0829C34.7432 68.1544 35.1501 68.207 35.4822 68.2409C35.8107 68.2747 36.0085 68.2935 36.0794 68.2935C36.2884 68.2935 36.4302 68.271 36.5086 68.2183C36.5832 68.1694 36.6579 68.0604 36.7288 67.8911L36.7512 67.8272C36.8221 67.6317 36.8445 67.5076 36.8258 67.4587C36.8034 67.4098 36.6952 67.3835 36.5011 67.3835H33.6497C33.3436 67.3835 33.1309 67.5301 33.0227 67.8272L31.5559 71.4826C31.4439 71.7797 31.5335 71.9263 31.8284 71.9263H36.9005C37.1393 71.9263 37.2065 72.0467 37.1095 72.2836L36.1242 74.7318C36.0271 74.9724 35.8592 75.089 35.6203 75.089H29.2232C28.3835 75.089 27.7901 74.7919 27.443 74.2015C27.0921 73.6111 27.0884 72.8928 27.4206 72.0467L29.3501 67.2518C29.7831 66.1801 30.3243 65.4091 30.9737 64.9278C31.6231 64.4501 32.4927 64.2095 33.5825 64.2095H38.9905C39.8975 64.2095 40.5282 64.4614 40.8753 64.9578C41.2262 65.458 41.2112 66.1801 40.8343 67.124L40.1214 68.9404C39.7295 69.9106 39.2742 70.6026 38.7591 71.0087C38.2404 71.4186 37.6059 71.6217 36.852 71.6217C36.5571 71.6217 36.0533 71.5766 35.3329 71.4863C34.6126 71.3961 33.8475 71.2795 33.0376 71.1366C32.7987 71.0952 32.7353 70.9523 32.8473 70.7154L33.7691 68.3913C33.8662 68.1657 33.9781 68.0529 34.105 68.0529C34.1312 68.0529 34.1573 68.0566 34.1797 68.0641C34.2021 68.0792 34.2245 68.0829 34.2543 68.0829Z" fill="white"/>
<path d="M40.6253 72.4339C40.7634 72.1256 40.9874 71.9676 41.2971 71.9676H46.9142C47.1941 71.9676 47.3882 71.8322 47.5001 71.5652C47.586 71.3133 47.4927 71.1854 47.2277 71.1854H43.8724C42.8946 71.1854 42.2227 70.8394 41.8607 70.1512C41.4987 69.463 41.5062 68.6394 41.8831 67.6805C42.372 66.4432 42.9767 65.5595 43.697 65.0292C44.4173 64.5027 45.4064 64.2357 46.6641 64.2357H52.9716C53.2777 64.2357 53.371 64.3899 53.2441 64.6983L52.3633 66.8945C52.2364 67.2029 52.0199 67.3608 51.7139 67.3608H46.2648C45.9998 67.3608 45.8244 67.4736 45.7423 67.6993C45.6452 67.9249 45.7273 68.0377 45.9961 68.0377H49.3513C50.3441 68.0377 51.0122 68.395 51.363 69.1133C51.7139 69.8316 51.6915 70.6702 51.2996 71.6254C50.7957 72.9078 50.1874 73.8028 49.4745 74.318C48.7617 74.8332 47.7763 75.089 46.5186 75.089H40.0394C39.7333 75.089 39.6326 74.9348 39.7445 74.6226L40.6253 72.4339Z" fill="white"/>
<path d="M52.5948 72.4339C52.7329 72.1256 52.9568 71.9676 53.2666 71.9676H58.8836C59.1635 71.9676 59.3576 71.8322 59.4696 71.5652C59.5554 71.3133 59.4621 71.1854 59.1971 71.1854H55.8418C54.864 71.1854 54.1922 70.8394 53.8301 70.1512C53.4681 69.463 53.4756 68.6394 53.8525 67.6805C54.3414 66.4432 54.9461 65.5595 55.6664 65.0292C56.3867 64.5027 57.3758 64.2357 58.6335 64.2357H64.9411C65.2471 64.2357 65.3404 64.3899 65.2135 64.6983L64.3327 66.8945C64.2058 67.2029 63.9893 67.3608 63.6833 67.3608H58.2342C57.9692 67.3608 57.7938 67.4736 57.7117 67.6993C57.6146 67.9249 57.6967 68.0377 57.9655 68.0377H61.3208C62.3135 68.0377 62.9816 68.395 63.3324 69.1133C63.6833 69.8316 63.6609 70.6702 63.269 71.6254C62.7651 72.9078 62.1568 73.8028 61.4439 74.318C60.7311 74.8332 59.7458 75.089 58.488 75.089H52.0125C51.7065 75.089 51.6057 74.9348 51.7177 74.6226L52.5948 72.4339Z" fill="white"/>
<path d="M69.0688 71.1027C68.8598 71.1027 68.7217 71.129 68.662 71.1779C68.5986 71.2268 68.5239 71.3584 68.4418 71.569C68.3149 71.8661 68.412 72.0128 68.7367 72.0128C68.8337 72.0128 69.0539 71.994 69.3973 71.9601C69.7406 71.9263 70.084 71.8849 70.4348 71.8435H70.5169C70.6849 71.8435 70.7334 71.9488 70.6625 72.1594L69.7406 74.461C69.6436 74.6866 69.4607 74.8257 69.1957 74.8821C68.5127 75.01 67.8708 75.1153 67.2774 75.198C66.6839 75.2808 66.2323 75.3259 65.9263 75.3259C65.0865 75.3259 64.5155 75.0664 64.2057 74.5437C63.8997 74.021 63.9109 73.3403 64.2468 72.4941L64.8738 70.9109C65.2806 69.8955 65.7919 69.1584 66.4152 68.6921C67.0385 68.2296 67.8521 67.9964 68.8561 67.9964H73.1333C73.2303 67.9964 73.3087 67.94 73.3647 67.8272L73.4505 67.6579C73.5625 67.4624 73.4505 67.3608 73.1146 67.3608H68.0201C67.7812 67.3608 67.714 67.2405 67.8111 67.0036L68.774 64.5968C68.871 64.3561 69.039 64.2395 69.2778 64.2395H75.6899C76.5296 64.2395 77.123 64.5366 77.4701 65.127C77.821 65.7174 77.8247 66.4357 77.4925 67.2819L74.4955 74.7355C74.3985 74.9762 74.2305 75.0927 73.9917 75.0927H70.8043C70.5655 75.0927 70.4983 74.9724 70.5953 74.7355L71.9987 71.2719C72.0397 71.1591 72.0061 71.1027 71.8942 71.1027H69.0688Z" fill="white"/>
<path d="M83.9494 67.5752C83.7255 67.5752 83.5874 67.673 83.5314 67.8723L82.0235 71.6104C81.9377 71.821 81.975 71.9263 82.128 71.9263H82.2139L84.1621 71.7345H84.2256C84.4756 71.7345 84.5391 71.8736 84.4159 72.1557L83.5351 74.3331C83.4231 74.6302 83.2067 74.8032 82.8857 74.8596C82.0907 74.9875 81.3741 75.0852 80.7359 75.1567C80.1014 75.2281 79.6498 75.262 79.3848 75.262C78.6309 75.262 78.086 74.9574 77.7501 74.3444C77.4142 73.7314 77.4217 73.0018 77.7725 72.1595L79.7021 67.3233C80.1649 66.1838 80.7135 65.3828 81.348 64.9277C81.9825 64.4689 82.8745 64.2433 84.0203 64.2433H91.7759C92.082 64.2433 92.1753 64.3975 92.0484 64.7058L87.5622 75.9201C87.0994 77.0596 86.5508 77.8606 85.9163 78.3156C85.2818 78.7744 84.3973 79.0038 83.2664 79.0038H78.0263C77.7203 79.0038 77.6269 78.8496 77.7538 78.5375L78.6757 76.2134C78.8138 75.89 79.0303 75.7283 79.3251 75.7283H83.3896C83.5986 75.7283 83.7441 75.6305 83.83 75.4312L86.9539 67.6166C86.98 67.5865 86.9763 67.5752 86.9315 67.5752H83.9494Z" fill="white"/>
<path d="M98.4566 68.0829C98.9456 68.1544 99.3524 68.207 99.6846 68.2409C100.013 68.2747 100.211 68.2935 100.282 68.2935C100.491 68.2935 100.633 68.271 100.711 68.2183C100.786 68.1694 100.86 68.0604 100.931 67.8911L100.954 67.8272C101.024 67.6317 101.047 67.5076 101.028 67.4587C101.006 67.4098 100.898 67.3835 100.703 67.3835H97.852C97.546 67.3835 97.3332 67.5301 97.225 67.8272L95.7582 71.4826C95.6463 71.7797 95.7358 71.9263 96.0307 71.9263H101.103C101.342 71.9263 101.409 72.0467 101.312 72.2836L100.327 74.7318C100.229 74.9724 100.062 75.089 99.8226 75.089H93.4293C92.5895 75.089 91.9961 74.7919 91.649 74.2015C91.2982 73.6111 91.2944 72.8928 91.6266 72.0467L93.5562 67.2518C93.9891 66.1801 94.5303 65.4091 95.1797 64.9278C95.8291 64.4501 96.6987 64.2095 97.7886 64.2095H103.197C104.104 64.2095 104.734 64.4614 105.081 64.9578C105.432 65.458 105.417 66.1801 105.04 67.124L104.327 68.9404C103.936 69.9106 103.48 70.6026 102.965 71.0087C102.446 71.4186 101.812 71.6217 101.058 71.6217C100.763 71.6217 100.259 71.5766 99.539 71.4863C98.8187 71.3961 98.0536 71.2795 97.2437 71.1366C97.0048 71.0952 96.9413 70.9523 97.0533 70.7154L97.9752 68.3913C98.0722 68.1657 98.1842 68.0529 98.3111 68.0529C98.3372 68.0529 98.3633 68.0566 98.3857 68.0641C98.4044 68.0792 98.4268 68.0829 98.4566 68.0829Z" fill="white"/>
</svg>
