<svg width="1440" height="911" viewBox="0 0 1440 911" fill="none" xmlns="http://www.w3.org/2000/svg">
<rect x="-105.081" y="275" width="1650.16" height="636" fill="#496873"/>
<path fill-rule="evenodd" clip-rule="evenodd" d="M0 120L30 90C60 60 120 0 180 0C240 0 300 60 360 66C420 72 480 24 540 18C600 12 660 48 720 96C780 144 840 204 900 228C960 252 1020 240 1080 210C1140 180 1200 132 1260 120C1320 108 1380 132 1410 144L1440 156V300H1410C1380 300 1320 300 1260 300C1200 300 1140 300 1080 300C1020 300 960 300 900 300C840 300 780 300 720 300C660 300 600 300 540 300C480 300 420 300 360 300C300 300 240 300 180 300C120 300 60 300 30 300H0V120Z" fill="#496873"/>
</svg>
