<svg width="1440" height="254" viewBox="0 0 1440 254" fill="none" xmlns="http://www.w3.org/2000/svg">
<path fill-rule="evenodd" clip-rule="evenodd" d="M1440 199.813L1422 171.363C1403 142.913 1366 86.0124 1329 80.7193C1292 76.0879 1255 123.725 1218 133.65C1182 142.913 1145 114.463 1108 104.538C1071 95.2752 1034 104.538 997 123.725C960 142.913 923 171.363 886 181.288C849 190.551 812 181.288 775 195.182C738 209.738 702 247.451 665 252.744C628 257.376 591 228.925 554 190.551C517 152.176 480 104.538 443 99.9067C406 95.2752 369 133.65 332 166.732C295 199.813 258 228.925 222 214.369C185 199.813 148 142.913 111 128.357C74 114.463 37 142.913 18 157.469L0 171.363V-3.05176e-05H18C37 -3.05176e-05 74 -3.05176e-05 111 -3.05176e-05C148 -3.05176e-05 185 -3.05176e-05 222 -3.05176e-05C258 -3.05176e-05 295 -3.05176e-05 332 -3.05176e-05C369 -3.05176e-05 406 -3.05176e-05 443 -3.05176e-05C480 -3.05176e-05 517 -3.05176e-05 554 -3.05176e-05C591 -3.05176e-05 628 -3.05176e-05 665 -3.05176e-05C702 -3.05176e-05 738 -3.05176e-05 775 -3.05176e-05C812 -3.05176e-05 849 -3.05176e-05 886 -3.05176e-05C923 -3.05176e-05 960 -3.05176e-05 997 -3.05176e-05C1034 -3.05176e-05 1071 -3.05176e-05 1108 -3.05176e-05C1145 -3.05176e-05 1182 -3.05176e-05 1218 -3.05176e-05C1255 -3.05176e-05 1292 -3.05176e-05 1329 -3.05176e-05C1366 -3.05176e-05 1403 -3.05176e-05 1422 -3.05176e-05H1440V199.813Z" fill="#4DF76A"/>
</svg>
